{
	"asset":{
		"generator":"Khronos glTF Blender I/O v4.4.56",
		"version":"2.0"
	},
	"scene":0,
	"scenes":[
		{
			"name":"Scene",
			"nodes":[
				4
			]
		}
	],
	"nodes":[
		{
			"mesh":0,
			"name":"Handle_Back",
			"translation":[
				-0.7423917055130005,
				0,
				-0.01699995994567871
			]
		},
		{
			"children":[
				0
			],
			"mesh":1,
			"name":"Door",
			"rotation":[
				0,
				0.8368350267410278,
				0,
				0.5474551916122437
			],
			"translation":[
				0.4179999828338623,
				1.0499999523162842,
				0.02210012637078762
			]
		},
		{
			"children":[
				1
			],
			"mesh":2,
			"name":"DoorFrame"
		},
		{
			"children":[
				2
			],
			"name":"Door_Group",
			"rotation":[
				0,
				-0.7071068286895752,
				0.7071068286895752,
				6.478418868027802e-08
			],
			"scale":[
				67.7527847290039,
				59.41009521484375,
				55.83134460449219
			],
			"translation":[
				-76.68107604980469,
				-44.47090148925781,
				84.59140014648438
			]
		},
		{
			"children":[
				3
			],
			"mesh":3,
			"name":"Base",
			"rotation":[
				0.7071068286895752,
				0,
				0,
				0.7071068286895752
			],
			"scale":[
				0.014759541489183903,
				0.017911085858941078,
				0.016832156106829643
			],
			"translation":[
				0.5217627882957458,
				1.4238554239273071,
				-1.2034779787063599
			]
		}
	],
	"materials":[
		{
			"alphaMode":"BLEND",
			"doubleSided":true,
			"name":"Frames",
			"normalTexture":{
				"index":0
			},
			"pbrMetallicRoughness":{
				"baseColorTexture":{
					"index":1
				},
				"metallicRoughnessTexture":{
					"index":2
				}
			}
		},
		{
			"alphaMode":"BLEND",
			"doubleSided":true,
			"name":"Rusty-Metal",
			"normalTexture":{
				"index":3
			},
			"pbrMetallicRoughness":{
				"baseColorTexture":{
					"index":4
				},
				"metallicFactor":0,
				"metallicRoughnessTexture":{
					"index":5
				}
			}
		},
		{
			"alphaMode":"BLEND",
			"doubleSided":true,
			"name":"Wood",
			"normalTexture":{
				"index":6
			},
			"pbrMetallicRoughness":{
				"baseColorTexture":{
					"index":7
				},
				"metallicFactor":0,
				"metallicRoughnessTexture":{
					"index":8
				}
			}
		},
		{
			"doubleSided":true,
			"name":"Facade_Glass"
		},
		{
			"alphaMode":"BLEND",
			"doubleSided":true,
			"name":"Metal",
			"normalTexture":{
				"index":9
			},
			"pbrMetallicRoughness":{
				"baseColorTexture":{
					"index":10
				},
				"metallicRoughnessTexture":{
					"index":11
				}
			}
		}
	],
	"meshes":[
		{
			"name":"Handle_Back",
			"primitives":[
				{
					"attributes":{
						"POSITION":0,
						"NORMAL":1,
						"TEXCOORD_0":2
					},
					"indices":3,
					"material":0
				}
			]
		},
		{
			"name":"Door",
			"primitives":[
				{
					"attributes":{
						"POSITION":4,
						"NORMAL":5,
						"TEXCOORD_0":6
					},
					"indices":7,
					"material":1
				}
			]
		},
		{
			"name":"DoorFrane",
			"primitives":[
				{
					"attributes":{
						"POSITION":8,
						"NORMAL":9,
						"TEXCOORD_0":10
					},
					"indices":11,
					"material":0
				}
			]
		},
		{
			"name":"Cube.030",
			"primitives":[
				{
					"attributes":{
						"POSITION":12,
						"NORMAL":13,
						"TEXCOORD_0":14
					},
					"indices":15,
					"material":0
				},
				{
					"attributes":{
						"POSITION":16,
						"NORMAL":17,
						"TEXCOORD_0":18
					},
					"indices":19,
					"material":1
				},
				{
					"attributes":{
						"POSITION":20,
						"NORMAL":21,
						"TEXCOORD_0":22
					},
					"indices":23,
					"material":2
				},
				{
					"attributes":{
						"POSITION":24,
						"NORMAL":25,
						"TEXCOORD_0":26
					},
					"indices":27,
					"material":3
				},
				{
					"attributes":{
						"POSITION":28,
						"NORMAL":29,
						"TEXCOORD_0":30
					},
					"indices":31,
					"material":4
				}
			]
		}
	],
	"textures":[
		{
			"sampler":0,
			"source":0
		},
		{
			"sampler":0,
			"source":1
		},
		{
			"sampler":0,
			"source":2
		},
		{
			"sampler":0,
			"source":3
		},
		{
			"sampler":0,
			"source":4
		},
		{
			"sampler":0,
			"source":5
		},
		{
			"sampler":0,
			"source":6
		},
		{
			"sampler":0,
			"source":7
		},
		{
			"sampler":0,
			"source":8
		},
		{
			"sampler":0,
			"source":9
		},
		{
			"sampler":0,
			"source":10
		},
		{
			"sampler":0,
			"source":11
		}
	],
	"images":[
		{
			"mimeType":"image/png",
			"name":"Metal3-Normal",
			"uri":"Metal3-Normal.png"
		},
		{
			"mimeType":"image/png",
			"name":"Metal3-Diff",
			"uri":"Metal3-Diff.png"
		},
		{
			"mimeType":"image/png",
			"name":"Metal3-Rough",
			"uri":"Metal3-Rough.png"
		},
		{
			"mimeType":"image/png",
			"name":"Metal2-Normal",
			"uri":"Metal2-Normal.png"
		},
		{
			"mimeType":"image/png",
			"name":"Metal2-Diff",
			"uri":"Metal2-Diff.png"
		},
		{
			"mimeType":"image/png",
			"name":"Metal2-Rough",
			"uri":"Metal2-Rough.png"
		},
		{
			"mimeType":"image/png",
			"name":"Wood-Normal",
			"uri":"Wood-Normal.png"
		},
		{
			"mimeType":"image/png",
			"name":"Wood-Diff",
			"uri":"Wood-Diff.png"
		},
		{
			"mimeType":"image/png",
			"name":"Wood-Rough",
			"uri":"Wood-Rough.png"
		},
		{
			"mimeType":"image/png",
			"name":"Metal1-Normal",
			"uri":"Metal1-Normal.png"
		},
		{
			"mimeType":"image/png",
			"name":"Metal1-Diff",
			"uri":"Metal1-Diff.png"
		},
		{
			"mimeType":"image/png",
			"name":"Metal1-Rough",
			"uri":"Metal1-Rough.png"
		}
	],
	"accessors":[
		{
			"bufferView":0,
			"componentType":5126,
			"count":580,
			"max":[
				0.1163230910897255,
				0.04352371022105217,
				0.08451641350984573
			],
			"min":[
				-0.0651041716337204,
				-0.04352371022105217,
				-0.08451640605926514
			],
			"type":"VEC3"
		},
		{
			"bufferView":1,
			"componentType":5126,
			"count":580,
			"type":"VEC3"
		},
		{
			"bufferView":2,
			"componentType":5126,
			"count":580,
			"type":"VEC2"
		},
		{
			"bufferView":3,
			"componentType":5123,
			"count":1584,
			"type":"SCALAR"
		},
		{
			"bufferView":4,
			"componentType":5126,
			"count":24,
			"max":[
				0,
				0.9639999270439148,
				0
			],
			"min":[
				-0.8360000252723694,
				-1.0460000038146973,
				-0.03399999812245369
			],
			"type":"VEC3"
		},
		{
			"bufferView":5,
			"componentType":5126,
			"count":24,
			"type":"VEC3"
		},
		{
			"bufferView":6,
			"componentType":5126,
			"count":24,
			"type":"VEC2"
		},
		{
			"bufferView":7,
			"componentType":5123,
			"count":36,
			"type":"SCALAR"
		},
		{
			"bufferView":8,
			"componentType":5126,
			"count":83,
			"max":[
				0.5,
				2.0999999046325684,
				0.026666665449738503
			],
			"min":[
				-0.5,
				0,
				-0.053333330899477005
			],
			"type":"VEC3"
		},
		{
			"bufferView":9,
			"componentType":5126,
			"count":83,
			"type":"VEC3"
		},
		{
			"bufferView":10,
			"componentType":5126,
			"count":83,
			"type":"VEC2"
		},
		{
			"bufferView":11,
			"componentType":5123,
			"count":141,
			"type":"SCALAR"
		},
		{
			"bufferView":12,
			"componentType":5126,
			"count":650,
			"max":[
				54.24263000488281,
				1.1435117721557617,
				17.451539993286133
			],
			"min":[
				51.023494720458984,
				-26.606014251708984,
				0.20647573471069336
			],
			"type":"VEC3"
		},
		{
			"bufferView":13,
			"componentType":5126,
			"count":650,
			"type":"VEC3"
		},
		{
			"bufferView":14,
			"componentType":5126,
			"count":650,
			"type":"VEC2"
		},
		{
			"bufferView":15,
			"componentType":5123,
			"count":1548,
			"type":"SCALAR"
		},
		{
			"bufferView":16,
			"componentType":5126,
			"count":96,
			"max":[
				62.1168212890625,
				76.29862976074219,
				-58.984256744384766
			],
			"min":[
				-130.93173217773438,
				-52.999290466308594,
				-71.11593627929688
			],
			"type":"VEC3"
		},
		{
			"bufferView":17,
			"componentType":5126,
			"count":96,
			"type":"VEC3"
		},
		{
			"bufferView":18,
			"componentType":5126,
			"count":96,
			"type":"VEC2"
		},
		{
			"bufferView":19,
			"componentType":5123,
			"count":180,
			"type":"SCALAR"
		},
		{
			"bufferView":20,
			"componentType":5126,
			"count":144,
			"max":[
				48.639739990234375,
				60.0150032043457,
				44.66678237915039
			],
			"min":[
				-4.5528564453125,
				-35.50653839111328,
				17.157575607299805
			],
			"type":"VEC3"
		},
		{
			"bufferView":21,
			"componentType":5126,
			"count":144,
			"type":"VEC3"
		},
		{
			"bufferView":22,
			"componentType":5126,
			"count":144,
			"type":"VEC2"
		},
		{
			"bufferView":23,
			"componentType":5123,
			"count":204,
			"type":"SCALAR"
		},
		{
			"bufferView":24,
			"componentType":5126,
			"count":221,
			"max":[
				52.61311340332031,
				68.29042053222656,
				27.82472038269043
			],
			"min":[
				-122.0810775756836,
				-45.91419219970703,
				-62.51942825317383
			],
			"type":"VEC3"
		},
		{
			"bufferView":25,
			"componentType":5126,
			"count":221,
			"type":"VEC3"
		},
		{
			"bufferView":26,
			"componentType":5126,
			"count":221,
			"type":"VEC2"
		},
		{
			"bufferView":27,
			"componentType":5123,
			"count":549,
			"type":"SCALAR"
		},
		{
			"bufferView":28,
			"componentType":5126,
			"count":788,
			"max":[
				57.142822265625,
				72.77494812011719,
				84.59140014648438
			],
			"min":[
				-127.40140533447266,
				-50.05402374267578,
				-67.0110092163086
			],
			"type":"VEC3"
		},
		{
			"bufferView":29,
			"componentType":5126,
			"count":788,
			"type":"VEC3"
		},
		{
			"bufferView":30,
			"componentType":5126,
			"count":788,
			"type":"VEC2"
		},
		{
			"bufferView":31,
			"componentType":5123,
			"count":1752,
			"type":"SCALAR"
		}
	],
	"bufferViews":[
		{
			"buffer":0,
			"byteLength":6960,
			"byteOffset":0,
			"target":34962
		},
		{
			"buffer":0,
			"byteLength":6960,
			"byteOffset":6960,
			"target":34962
		},
		{
			"buffer":0,
			"byteLength":4640,
			"byteOffset":13920,
			"target":34962
		},
		{
			"buffer":0,
			"byteLength":3168,
			"byteOffset":18560,
			"target":34963
		},
		{
			"buffer":0,
			"byteLength":288,
			"byteOffset":21728,
			"target":34962
		},
		{
			"buffer":0,
			"byteLength":288,
			"byteOffset":22016,
			"target":34962
		},
		{
			"buffer":0,
			"byteLength":192,
			"byteOffset":22304,
			"target":34962
		},
		{
			"buffer":0,
			"byteLength":72,
			"byteOffset":22496,
			"target":34963
		},
		{
			"buffer":0,
			"byteLength":996,
			"byteOffset":22568,
			"target":34962
		},
		{
			"buffer":0,
			"byteLength":996,
			"byteOffset":23564,
			"target":34962
		},
		{
			"buffer":0,
			"byteLength":664,
			"byteOffset":24560,
			"target":34962
		},
		{
			"buffer":0,
			"byteLength":282,
			"byteOffset":25224,
			"target":34963
		},
		{
			"buffer":0,
			"byteLength":7800,
			"byteOffset":25508,
			"target":34962
		},
		{
			"buffer":0,
			"byteLength":7800,
			"byteOffset":33308,
			"target":34962
		},
		{
			"buffer":0,
			"byteLength":5200,
			"byteOffset":41108,
			"target":34962
		},
		{
			"buffer":0,
			"byteLength":3096,
			"byteOffset":46308,
			"target":34963
		},
		{
			"buffer":0,
			"byteLength":1152,
			"byteOffset":49404,
			"target":34962
		},
		{
			"buffer":0,
			"byteLength":1152,
			"byteOffset":50556,
			"target":34962
		},
		{
			"buffer":0,
			"byteLength":768,
			"byteOffset":51708,
			"target":34962
		},
		{
			"buffer":0,
			"byteLength":360,
			"byteOffset":52476,
			"target":34963
		},
		{
			"buffer":0,
			"byteLength":1728,
			"byteOffset":52836,
			"target":34962
		},
		{
			"buffer":0,
			"byteLength":1728,
			"byteOffset":54564,
			"target":34962
		},
		{
			"buffer":0,
			"byteLength":1152,
			"byteOffset":56292,
			"target":34962
		},
		{
			"buffer":0,
			"byteLength":408,
			"byteOffset":57444,
			"target":34963
		},
		{
			"buffer":0,
			"byteLength":2652,
			"byteOffset":57852,
			"target":34962
		},
		{
			"buffer":0,
			"byteLength":2652,
			"byteOffset":60504,
			"target":34962
		},
		{
			"buffer":0,
			"byteLength":1768,
			"byteOffset":63156,
			"target":34962
		},
		{
			"buffer":0,
			"byteLength":1098,
			"byteOffset":64924,
			"target":34963
		},
		{
			"buffer":0,
			"byteLength":9456,
			"byteOffset":66024,
			"target":34962
		},
		{
			"buffer":0,
			"byteLength":9456,
			"byteOffset":75480,
			"target":34962
		},
		{
			"buffer":0,
			"byteLength":6304,
			"byteOffset":84936,
			"target":34962
		},
		{
			"buffer":0,
			"byteLength":3504,
			"byteOffset":91240,
			"target":34963
		}
	],
	"samplers":[
		{
			"magFilter":9729,
			"minFilter":9987
		}
	],
	"buffers":[
		{
			"byteLength":94744,
			"uri":"Booth.bin"
		}
	]
}
